<svg xmlns="http://www.w3.org/2000/svg" width="256" height="256" viewBox="0 0 100 100"><rect width="100" height="100" rx="50" fill="#183361"></rect><path fill="#fff" d="M44.39 68.42L44.39 68.42Q44.02 68.54 43.41 68.70Q42.80 68.85 42.07 68.85L42.07 68.85Q39.39 68.85 39.39 66.59L39.39 66.59L39.39 51.83L20.35 51.83L20.35 68.42Q19.99 68.54 19.38 68.70Q18.77 68.85 18.04 68.85L18.04 68.85Q15.35 68.85 15.35 66.59L15.35 66.59L15.35 31.58Q15.66 31.46 16.30 31.30Q16.94 31.15 17.67 31.15L17.67 31.15Q20.35 31.15 20.35 33.41L20.35 33.41L20.35 47.68L39.39 47.68L39.39 31.58Q39.69 31.46 40.33 31.30Q40.97 31.15 41.70 31.15L41.70 31.15Q44.39 31.15 44.39 33.41L44.39 33.41L44.39 68.42ZM57.93 68.85L57.93 68.85Q55.25 68.85 55.25 66.65L55.25 66.65L55.25 32.19Q56.34 31.09 58.54 31.09L58.54 31.09Q60.00 31.09 61.04 31.67Q62.08 32.25 62.93 33.77L62.93 33.77L74.58 53.29Q75.31 54.57 76.11 56.01Q76.90 57.44 77.63 58.88Q78.36 60.31 79.01 61.56Q79.65 62.81 80.07 63.66L80.07 63.66L80.32 63.60Q79.83 58.66 79.74 53.66Q79.65 48.66 79.65 43.90L79.65 43.90L79.65 31.58Q80.01 31.46 80.62 31.30Q81.23 31.15 81.96 31.15L81.96 31.15Q84.65 31.15 84.65 33.35L84.65 33.35L84.65 67.87Q84.10 68.36 83.25 68.64Q82.39 68.91 81.35 68.91L81.35 68.91Q79.89 68.91 78.85 68.33Q77.82 67.75 76.96 66.23L76.96 66.23L65.37 46.71Q64.64 45.49 63.82 44.02Q62.99 42.56 62.23 41.16Q61.47 39.75 60.83 38.47Q60.19 37.19 59.76 36.34L59.76 36.34L59.52 36.40Q59.82 39.33 60.00 43.08Q60.19 46.83 60.19 50.18L60.19 50.18L60.19 68.42Q59.88 68.54 59.24 68.70Q58.60 68.85 57.93 68.85Z"></path></svg>